<?xml version="1.0" standalone="no"?><!DOCTYPE svg PUBLIC "-//W3C//DTD SVG 1.1//EN" "http://www.w3.org/Graphics/SVG/1.1/DTD/svg11.dtd"><svg t="1560847228815" width="128" height="128" class="icon" style="" viewBox="0 0 1024 1024" version="1.1" xmlns="http://www.w3.org/2000/svg" p-id="2497" xmlns:xlink="http://www.w3.org/1999/xlink" width="200" height="200"><defs><style type="text/css"></style></defs><path d="M654.22336 555.38688V142.22336C654.22336 63.80544 590.41792 0 512 0S369.77664 63.80544 369.77664 142.22336v413.16352C299.19232 602.69568 256 682.69056 256 768c0 141.16864 114.83136 256 256 256s256-114.83136 256-256c0-85.30944-43.19232-165.30432-113.77664-212.61312zM512 967.10656C402.2272 967.10656 312.89344 877.7728 312.89344 768c0-70.656 38.16448-136.66304 99.584-172.24704a28.45696 28.45696 0 0 0 14.19264-24.576V426.67008H512a28.44672 28.44672 0 0 0 0-56.89344h-85.32992v-56.8832H512a28.44672 28.44672 0 0 0 0-56.89344h-85.32992V142.22336a85.33504 85.33504 0 1 1 170.67008 0v428.91264a28.45696 28.45696 0 0 0 14.19264 24.576c61.44 35.584 99.584 101.5808 99.584 172.24704C711.10656 877.7728 621.7728 967.10656 512 967.10656z" p-id="2498" fill="#1afa29"></path><path d="M625.77664 739.55328A28.42624 28.42624 0 0 0 597.32992 768 85.42208 85.42208 0 0 1 512 853.32992a28.44672 28.44672 0 0 0 0 56.89344c78.41792 0 142.22336-63.80544 142.22336-142.22336a28.42624 28.42624 0 0 0-28.44672-28.44672z" p-id="2499" fill="#1afa29"></path></svg>